<svg width="128" height="128" viewBox="0 0 128 128" fill="none" xmlns="http://www.w3.org/2000/svg">
<rect width="128" height="128" fill="white"/>
<path d="M64.2687 34.8566C44.5016 37.4644 46.5809 54.415 50.0914 62.5644C47.7961 61.342 42.3142 58.4897 38.7497 56.8598C34.294 54.8225 27.813 57.2673 26.5978 58.0822C25.3826 58.8972 21.332 68.2689 23.7624 83.3452C26.1927 98.4214 37.5345 104.126 44.4206 106.978C51.3066 109.83 66.699 109.423 78.0408 102.496C89.3826 95.5692 88.1674 82.9377 84.1167 78.4556C80.8762 74.8698 80.3362 67.9972 80.4712 65.0092C83.3066 53.8717 84.0357 32.2488 64.2687 34.8566Z" fill="#F7D23D" stroke="black"/>
<path d="M55.7652 89.6404C56.7176 85.3471 55.2754 77.1759 41.8869 78.8378C40.7984 78.5608 38.3765 77.259 37.3969 74.2675C36.1723 70.5282 27.6004 72.6056 32.4987 87.1475" stroke="black"/>
<ellipse cx="70.5" cy="56.1404" rx="3.5" ry="5.5" fill="white"/>
<ellipse cx="79.5" cy="52.6404" rx="2.5" ry="4" fill="white"/>
<path d="M90.51 42.8134C96.2347 48.9519 95.8106 61.2558 94.883 66.6404C99.521 66.6404 107.843 63.4096 104.027 50.4865C100.21 37.5634 102.966 30.2942 104.822 28.275L89.3173 24.6404C87.3296 28.1404 84.7853 36.675 90.51 42.8134Z" fill="#DDDDDD"/>
<path d="M84.7691 63.6678L83.1392 64.2378L93.3922 68.2743L93.4322 71.0043L97.4655 72.9475L98.7124 66.227L92.967 65.4063L92.8222 66.6444L84.7691 63.6678Z" fill="#9D8009" stroke="black"/>
<path d="M79.1868 56.9666C75.5121 54.9944 72.6447 62.4449 70 66.4167C74.0366 69.9776 81.1077 72.7441 85.4506 68.471C89.7934 64.198 82.3883 66.922 80.022 66.0058C81.2009 65.8967 84.9961 63.3835 86.2857 63.1297C90.4615 62.3079 88.7912 57.7883 87.956 58.1992C87.1209 58.6101 83.7802 59.4318 79.1868 56.9666Z" fill="#E05050"/>
<path d="M75.8462 64.7732C76.1348 65.0572 77.3836 66.25 80.022 66.0058M80.022 66.0058C81.2009 65.8967 84.9961 63.3835 86.2857 63.1297C90.4615 62.3079 88.7912 57.7883 87.956 58.1992C87.1209 58.6101 83.7802 59.4318 79.1868 56.9666C75.5121 54.9944 72.6447 62.4449 70 66.4167C74.0366 69.9776 81.1077 72.7441 85.4505 68.471C89.7934 64.198 82.3883 66.922 80.022 66.0058Z" stroke="black"/>
<path d="M71.316 54.1404C72.0728 55.1586 69.7503 55.6554 70.0223 57.6404M80.8031 50.6404C81.5342 51.736 79.9983 52.1984 79.9406 54.1404" stroke="black"/>
<path d="M71.9064 48.0895C67.9313 50.6346 52.5794 53.6039 46 44.2718C46 30.6977 80.1306 29.4252 80.953 34.0912C81.611 37.8241 75.196 45.4029 71.9064 48.0895Z" fill="#9D8009" stroke="black"/>
<path d="M43 28.4021L55.5676 42.2915C62.0541 46.2132 69.8919 40.6575 73 37.3894L70.973 20.6404C58.3334 17.0209 52.358 19.2979 43 28.4021Z" fill="#9D8009" stroke="black"/>
</svg>
